<svg width="12" height="12" viewBox="0 0 12 12" fill="none" xmlns="http://www.w3.org/2000/svg">
	<path d="M8.16488 3.83583C8.11066 3.78116 8.04614 3.73776 7.97505 3.70815C7.90397 3.67853 7.82772 3.66328 7.75072 3.66328C7.67371 3.66328 7.59747 3.67853 7.52638 3.70815C7.4553 3.73776 7.39078 3.78116 7.33655 3.83583L6.00072 5.1775L4.66488 3.83583C4.55504 3.72599 4.40606 3.66428 4.25072 3.66428C4.09537 3.66428 3.94639 3.72599 3.83655 3.83583C3.72671 3.94568 3.665 4.09466 3.665 4.25C3.665 4.40534 3.72671 4.55432 3.83655 4.66417L5.17822 6L3.83655 7.33583C3.78188 7.39006 3.73848 7.45458 3.70886 7.52566C3.67925 7.59675 3.664 7.67299 3.664 7.75C3.664 7.82701 3.67925 7.90325 3.70886 7.97434C3.73848 8.04542 3.78188 8.10994 3.83655 8.16417C3.89078 8.21884 3.9553 8.26224 4.02638 8.29185C4.09747 8.32147 4.17371 8.33672 4.25072 8.33672C4.32772 8.33672 4.40397 8.32147 4.47505 8.29185C4.54614 8.26224 4.61066 8.21884 4.66488 8.16417L6.00072 6.8225L7.33655 8.16417C7.39078 8.21884 7.4553 8.26224 7.52638 8.29185C7.59747 8.32147 7.67371 8.33672 7.75072 8.33672C7.82772 8.33672 7.90397 8.32147 7.97505 8.29185C8.04614 8.26224 8.11066 8.21884 8.16488 8.16417C8.21956 8.10994 8.26296 8.04542 8.29257 7.97434C8.32219 7.90325 8.33743 7.82701 8.33743 7.75C8.33743 7.67299 8.32219 7.59675 8.29257 7.52566C8.26296 7.45458 8.21956 7.39006 8.16488 7.33583L6.82322 6L8.16488 4.66417C8.21956 4.60994 8.26296 4.54542 8.29257 4.47434C8.32219 4.40325 8.33743 4.32701 8.33743 4.25C8.33743 4.17299 8.32219 4.09675 8.29257 4.02566C8.26296 3.95458 8.21956 3.89006 8.16488 3.83583ZM10.1249 1.87583C9.58678 1.31869 8.9431 0.874295 8.23141 0.568576C7.51972 0.262857 6.75427 0.101937 5.97972 0.0952062C5.20518 0.0884756 4.43705 0.236069 3.72015 0.529374C3.00326 0.822679 2.35195 1.25582 1.80425 1.80353C1.25654 2.35124 0.823396 3.00254 0.530091 3.71944C0.236786 4.43633 0.0891928 5.20446 0.0959234 5.97901C0.102654 6.75355 0.263574 7.519 0.569293 8.23069C0.875012 8.94238 1.31941 9.58606 1.87655 10.1242C2.41466 10.6813 3.05833 11.1257 3.77002 11.4314C4.48171 11.7371 5.24716 11.8981 6.02171 11.9048C6.79626 11.9115 7.56439 11.7639 8.28128 11.4706C8.99818 11.1773 9.64948 10.7442 10.1972 10.1965C10.7449 9.64876 11.178 8.99746 11.4713 8.28057C11.7647 7.56367 11.9122 6.79554 11.9055 6.02099C11.8988 5.24645 11.7379 4.481 11.4321 3.76931C11.1264 3.05762 10.682 2.41394 10.1249 1.87583ZM9.30238 9.30167C8.53941 10.0655 7.5352 10.5411 6.46085 10.6476C5.3865 10.754 4.30847 10.4847 3.41044 9.88545C2.51241 9.2862 1.84993 8.39412 1.53587 7.3612C1.22181 6.32828 1.2756 5.21842 1.68808 4.22071C2.10056 3.223 2.84621 2.39917 3.79799 1.88958C4.74976 1.37999 5.84878 1.21616 6.9078 1.42601C7.96683 1.63586 8.92033 2.2064 9.60586 3.04044C10.2914 3.87447 10.6665 4.92039 10.6674 6C10.6695 6.61325 10.5499 7.22083 10.3156 7.78756C10.0813 8.35429 9.73691 8.86892 9.30238 9.30167Z" fill="#828282"/>
</svg>